<svg width="265" height="53" viewBox="0 0 265 53" fill="none" xmlns="http://www.w3.org/2000/svg">
<g clip-path="url(#clip0_4_47)">
<path d="M67.9268 43.5804C67.3057 45.228 66.6777 46.8686 66.0566 48.5231C65.7736 49.2739 65.2422 49.8161 64.6004 50.2402C62.9235 51.3455 61.1016 51.9155 59.0865 51.5958C58.1687 51.4498 57.2715 51.1647 56.3675 50.9214C55.5325 50.699 54.9459 50.1776 54.6353 49.3573C54.518 49.0445 54.3869 48.7316 54.2696 48.4188C54.1109 47.9948 54.035 47.9322 53.6071 48.106C52.8963 48.384 52.1993 48.683 51.5092 49.0097C50.3774 49.545 49.2318 50.0455 47.9827 50.1846C46.9752 50.2958 45.9607 50.3792 44.9463 50.3862C43.1106 50.4001 41.2749 50.4279 39.4462 50.2888C36.7962 50.0872 34.2014 49.5241 31.648 48.7873C30.9372 48.5857 30.9303 48.5857 30.6197 49.2669C30.1504 50.3027 29.6881 51.3385 29.2257 52.3743C28.9566 52.9791 28.6322 53.1251 28.0111 52.9027C27.7696 52.8193 27.535 52.7358 27.2934 52.6455C26.7413 52.4439 26.5826 52.1032 26.8034 51.561C27.321 50.3097 27.8386 49.0584 28.37 47.7723C28.2596 47.7236 28.1629 47.668 28.0594 47.6333C22.932 45.7702 18.0943 43.3023 13.3809 40.5773C13.2912 40.5286 13.2015 40.473 13.1049 40.4243C12.4976 40.1254 11.9179 40.1323 11.421 40.6468C11.076 41.0083 10.7585 41.3837 10.4411 41.766C10.2685 41.9676 10.1236 42.1901 9.93039 42.4612C5.85878 38.8463 2.49797 34.71 -0.0140076 29.8646C0.883128 29.3363 1.73196 28.8427 2.56698 28.3353C2.73261 28.2379 2.84302 28.0572 2.98104 27.9181C2.80162 27.8278 2.63599 27.6957 2.44966 27.647C1.88378 27.501 1.30409 27.3829 0.731305 27.2508C0.579482 27.216 0.43456 27.1604 0.289638 27.1117C0.289638 27.077 0.289638 27.0422 0.289638 27.0075C0.669196 26.9519 1.04875 26.9032 1.42141 26.8476C2.15292 26.7433 2.87063 26.5695 3.51933 26.1872C4.03 25.8813 4.07141 25.5546 3.65045 25.1305C3.30539 24.776 3.333 24.5048 3.74016 24.2268C3.94719 24.0808 4.16802 23.9557 4.37506 23.8097C4.72011 23.5594 4.71321 23.2744 4.35435 23.038C3.82297 22.6904 3.26399 22.3776 2.76711 21.9883C2.51867 21.7937 2.33235 21.4808 2.20123 21.1819C2.0287 20.7926 2.23573 20.4242 2.64979 20.3755C3.14667 20.3199 3.67115 20.2851 4.16112 20.3755C6.48677 20.7718 8.6537 20.16 10.7861 19.3745C14.4437 18.0328 17.3145 15.6344 19.6057 12.5062C20.2198 11.672 20.3786 10.8238 19.7851 9.89231C19.6747 9.71852 19.6471 9.39179 19.7368 9.22495C19.8127 9.09981 20.1646 9.02334 20.3372 9.07896C22.2488 9.73242 23.974 9.19019 25.6372 8.25865C26.7275 7.65385 27.8386 7.09076 29.0532 6.77098C30.7508 6.32607 32.4278 6.38169 34.0978 6.93087C36.6926 7.77898 39.2943 7.75813 41.896 6.97258C42.5102 6.78489 43.0002 6.44425 43.3245 5.88811C44.3873 4.08066 45.4431 2.26626 46.499 0.458812C46.5749 0.33368 46.6577 0.208549 46.7889 0.0139008C46.8027 0.173791 46.8234 0.257211 46.8234 0.340632C46.8234 1.37644 46.8096 2.41225 46.8372 3.4411C46.8372 3.63575 46.9338 3.92773 47.0649 3.99029C47.2029 4.05286 47.479 3.94163 47.6377 3.82345C48.2312 3.39244 48.6452 2.8085 48.9972 2.16894C49.3146 1.58499 49.6045 0.994095 49.9288 0.424053C49.9978 0.298922 50.1773 0.125128 50.267 0.145984C50.3981 0.173791 50.5292 0.340632 50.6051 0.479667C51.3712 1.92563 51.0813 3.4133 50.757 4.90097C50.6879 5.2277 50.5637 5.54748 50.474 5.86726C50.2739 6.56938 50.4119 6.94478 51.0054 7.36883C51.3919 7.6469 51.7852 7.90412 52.151 8.20999C53.2551 9.11372 53.683 10.2747 53.476 11.7067C53.2689 13.0971 53.6071 14.4179 54.1661 15.6692C56.5124 20.9317 58.8726 26.1802 61.2603 31.4288C61.4812 31.9084 61.8538 32.3534 62.2472 32.7079C63.2616 33.6255 63.9172 34.7239 64.4279 35.9961C65.0904 37.6506 65.953 39.2147 66.7398 40.8206C67.1193 41.5922 67.5196 42.3499 67.906 43.1077V43.5943L67.9268 43.5804ZM28.1284 19.9515C28.156 19.9862 28.1905 20.0279 28.2182 20.0627C28.0663 20.2295 27.9283 20.4242 27.7558 20.5632C26.7413 21.4044 25.6993 22.2177 24.6986 23.0797C21.5725 25.7562 18.8672 28.7871 16.8176 32.402C15.7411 34.2929 14.5127 36.1003 13.3533 37.9425C13.1187 38.311 13.1808 38.6238 13.5672 38.8532C13.9744 39.0896 14.3954 39.312 14.8094 39.5345C19.1985 41.912 23.6428 44.1574 28.2872 45.9996C28.9566 46.2638 29.1705 46.1873 29.5017 45.5338C30.7577 43.0521 31.9999 40.5634 33.2628 38.0816C33.5458 37.5254 33.5596 37.0041 33.2766 36.4549C32.9178 35.7528 32.7797 35.0089 32.8695 34.2303C32.9454 33.556 33.2214 32.9651 33.5665 32.3951C34.1392 31.4566 34.7189 30.5181 35.2572 29.5588C35.5402 29.0582 35.4366 28.6759 35.0364 28.3492C34.6361 28.0224 34.2635 28.0224 33.8218 28.4048C33.4629 28.7106 33.1179 29.0443 32.8074 29.4058C31.6135 30.8031 30.2678 32.0475 28.86 33.2084C28.5908 33.4309 28.2182 33.563 27.8731 33.6603C27.5833 33.7437 27.2589 33.7159 27.0588 33.4239C26.8656 33.125 26.976 32.833 27.1623 32.5828C27.4935 32.1239 27.8041 31.6443 28.1905 31.2272C29.4741 29.8438 30.7853 28.4882 32.0827 27.1117C33.6424 25.4572 35.133 23.7471 36.3131 21.7867C36.5753 21.3488 36.7409 20.8413 36.879 20.3408C37.0653 19.6595 37.155 18.9504 37.3206 18.2622C37.362 18.0884 37.4794 17.8381 37.6174 17.7895C38.1419 17.6087 38.6801 17.5601 39.1632 17.9424C39.874 18.5055 40.2122 19.2285 40.0879 20.1392C39.9154 21.3766 40.0396 22.5723 40.5503 23.7193C41.1783 25.1375 42.179 26.2775 43.3245 27.2855C43.5454 27.4802 43.9732 27.5358 44.2907 27.501C44.8704 27.4454 45.4501 27.2925 46.0159 27.1465C46.7405 26.9588 47.4514 26.7225 48.1829 26.5487C48.6659 26.4305 48.9834 26.6182 49.2042 27.0561C49.2594 27.1604 49.2732 27.2925 49.3491 27.369C49.4458 27.4663 49.5907 27.5149 49.7149 27.5845C49.777 27.4593 49.9012 27.3342 49.9012 27.216C49.8943 27.0005 49.8253 26.785 49.7425 26.5834C49.4389 25.8465 49.0593 25.1305 48.8178 24.3728C48.314 22.7947 47.2719 21.7033 45.8917 20.9039C45.4846 20.6675 45.1326 20.744 44.8083 21.0916C44.5943 21.321 44.3735 21.5434 44.1872 21.7937C43.6696 22.4541 43.0209 23.0241 42.7518 23.8653C42.731 23.9348 42.5861 24.0391 42.5654 24.0252C42.4688 23.9557 42.3584 23.8722 42.317 23.768C41.8201 22.5306 41.4613 21.2653 41.6545 19.9028C41.689 19.6803 41.6683 19.437 41.62 19.2146C41.4198 18.2552 41.7304 17.5045 42.4688 16.8997C42.6896 16.7189 42.9381 16.559 43.152 16.3644C43.4764 16.0794 43.6903 15.273 43.5385 14.9532C43.3866 14.6334 42.8208 14.3831 42.3239 14.4387C42.0962 14.4666 41.8753 14.5291 41.6545 14.5986C41.3922 14.6821 41.1369 14.7933 40.8747 14.8767C40.1501 15.1061 39.6187 14.9184 39.1839 14.2997C39.0873 14.1607 38.9907 14.0077 38.8734 13.8826C38.5835 13.5628 38.2109 13.4029 37.8106 13.5837C37.1688 13.8757 36.527 13.7644 35.8783 13.6949C35.1468 13.6184 34.4084 13.4794 33.6769 13.5142C32.2553 13.5837 30.9027 14.0077 29.6467 14.6751C27.1209 16.0098 24.74 17.5948 22.4627 19.3119C18.3635 22.4124 14.6231 25.9161 11.1105 29.67C10.7654 30.0384 10.4342 30.4347 10.165 30.8657C9.79237 31.4705 9.75787 32.1448 10.027 32.8052C10.3307 33.556 10.8206 33.6672 11.4141 33.125C11.6004 32.9512 11.7799 32.7635 11.9317 32.5689C12.8633 31.394 13.9606 30.4347 15.2787 29.6978C15.9826 29.3015 16.6313 28.7663 17.2248 28.2101C19.5988 25.9856 21.9451 23.7332 24.2984 21.4808C24.9195 20.8899 25.6303 20.445 26.4239 20.1322C26.9691 19.9167 27.5419 19.8889 28.1215 19.9445L28.1284 19.9515ZM53.4139 46.5349C52.5374 45.4296 51.6265 44.4146 50.612 43.497C49.0731 42.0927 47.2236 41.3489 45.2361 40.8553C43.1796 40.3478 41.1852 39.6666 39.4738 38.3457C39.1011 38.0538 38.7284 38.1302 38.4179 38.5265C36.5132 40.9805 34.6154 43.4344 32.7245 45.8953C32.3726 46.3472 32.4416 46.7712 32.9454 47.0215C33.6562 47.3691 34.3739 47.7306 35.133 47.96C37.9486 48.829 40.8471 49.1001 43.78 48.961C46.9131 48.8081 49.915 48.1338 52.7859 46.8547C52.9929 46.7643 53.1861 46.6461 53.4208 46.5279L53.4139 46.5349ZM61.005 33.7089C60.9429 33.5421 60.8532 33.2084 60.6945 32.9025C60.1562 31.8389 59.5696 30.7962 59.0451 29.7256C58.5275 28.6759 58.0583 27.6053 57.5545 26.5487C57.1266 25.6658 56.4779 25.4155 55.6222 25.7631C54.9735 26.0273 54.8217 26.4305 55.1391 27.0561C55.6084 27.9738 56.0846 28.8914 56.5538 29.809C57.3682 31.394 58.1894 32.986 59.0037 34.571C59.1693 34.8907 59.3833 35.134 59.7628 35.134C60.3287 35.134 60.9981 34.4528 60.9981 33.7089H61.005ZM53.2137 21.168C53.4967 21.1124 53.7796 21.0707 54.0557 20.9942C54.587 20.8482 54.801 20.4798 54.6629 19.9376C54.518 19.3745 54.4076 18.7975 54.1937 18.2622C53.8417 17.3724 53.4484 16.4965 53.0274 15.6344C52.848 15.259 52.4546 15.1895 52.1924 15.4606C51.7231 15.9542 51.2814 16.4756 50.8536 17.0109C50.6534 17.2681 50.7432 17.4558 51.0606 17.5462C51.3021 17.6157 51.5575 17.6504 51.799 17.72C52.3235 17.8659 52.4201 18.144 52.1234 18.5959C51.9646 18.8392 51.7921 19.0755 51.6334 19.3119C51.3642 19.7151 51.3849 20.0975 51.7093 20.452C52.1096 20.8899 52.5995 21.1402 53.2137 21.1611V21.168Z" fill="white"/>
<path d="M92.4878 4.4213H95.2896V24.5605H92.4878V4.4213ZM93.7161 13.3612H100.527C101.059 13.3612 101.528 13.2361 101.942 12.9719C102.356 12.7147 102.674 12.3463 102.895 11.8736C103.122 11.4008 103.233 10.8516 103.233 10.2329C103.233 9.61424 103.122 9.072 102.895 8.59233C102.667 8.11266 102.356 7.75117 101.949 7.49396C101.542 7.23675 101.066 7.10466 100.527 7.10466H93.7161V4.4213H100.417C101.57 4.4213 102.584 4.65765 103.46 5.14428C104.337 5.62394 105.013 6.30521 105.496 7.18808C105.979 8.07095 106.221 9.08591 106.221 10.2399C106.221 11.3939 105.979 12.4088 105.489 13.2917C105.006 14.1746 104.323 14.8558 103.447 15.3355C102.57 15.8152 101.563 16.0585 100.417 16.0585H93.7161V13.3751V13.3612ZM99.1542 15.4259L101.942 14.7863L107.056 24.5535H103.73L99.1542 15.4189V15.4259Z" fill="white"/>
<path d="M112.949 18.9226C112.949 19.9306 113.205 20.7092 113.708 21.2514C114.219 21.8006 114.93 22.0787 115.862 22.0787C116.793 22.0787 117.49 21.8354 117.994 21.3418C118.498 20.8552 118.746 20.16 118.746 19.2493L118.939 22.2525C118.643 22.9616 118.167 23.5594 117.511 24.0391C116.855 24.5188 116.041 24.7621 115.082 24.7621C113.508 24.7621 112.287 24.2546 111.431 23.2327C110.575 22.2108 110.148 20.7787 110.148 18.9226V10.1912H112.949V18.9226ZM118.746 10.1912H121.534V24.5605H118.746V10.1912Z" fill="white"/>
<path d="M128.47 24.5187C127.731 24.3519 127.041 24.1016 126.399 23.7749C125.758 23.4482 125.164 23.0311 124.626 22.5306L126.289 20.4659C127.055 21.0568 127.821 21.5017 128.58 21.7937C129.339 22.0856 130.092 22.2386 130.837 22.2386C131.948 22.2386 132.776 22.0648 133.328 21.7172C133.88 21.3696 134.156 20.8552 134.156 20.16C134.156 19.7012 134.004 19.3536 133.701 19.1242C133.397 18.8948 133.024 18.7419 132.576 18.6584C132.127 18.575 131.492 18.5055 130.678 18.4429C130.602 18.4429 130.526 18.4429 130.443 18.4429C130.361 18.4429 130.285 18.429 130.209 18.4221C130.174 18.4221 130.133 18.4221 130.098 18.4221C130.064 18.4221 130.023 18.4221 129.988 18.4221C129.063 18.3456 128.277 18.2135 127.635 18.0119C126.993 17.8103 126.462 17.4419 126.034 16.8996C125.606 16.3574 125.392 15.5788 125.392 14.5639C125.392 13.5489 125.599 12.7078 126.013 12.0334C126.427 11.3591 127.041 10.8516 127.856 10.518C128.67 10.1843 129.691 10.0105 130.92 10.0105C131.665 10.0105 132.369 10.08 133.045 10.219C133.721 10.3581 134.363 10.5666 134.977 10.8377C135.592 11.1089 136.178 11.4564 136.751 11.8666L135.06 13.9313C134.343 13.4655 133.646 13.1249 132.949 12.8955C132.258 12.666 131.582 12.5479 130.92 12.5479C129.967 12.5479 129.25 12.7147 128.773 13.0414C128.297 13.3682 128.056 13.8617 128.056 14.5152C128.056 14.9045 128.194 15.1965 128.463 15.3842C128.732 15.5788 129.077 15.704 129.484 15.7735C129.898 15.836 130.485 15.8916 131.244 15.9403C131.299 15.9473 131.354 15.9542 131.417 15.9542C131.479 15.9542 131.541 15.9542 131.603 15.9681H131.686C131.686 15.9681 131.741 15.9681 131.768 15.982C132.769 16.0446 133.618 16.1836 134.315 16.3852C135.012 16.5868 135.605 16.99 136.082 17.5879C136.558 18.1857 136.799 19.0547 136.799 20.1878C136.799 21.2236 136.579 22.0787 136.137 22.753C135.695 23.4273 135.033 23.9418 134.149 24.2824C133.266 24.623 132.155 24.7968 130.816 24.7968C129.974 24.7968 129.181 24.7134 128.449 24.5466L128.47 24.5187Z" fill="white"/>
<path d="M143.059 24.5187C142.32 24.3519 141.63 24.1016 140.988 23.7749C140.346 23.4482 139.753 23.0311 139.215 22.5306L140.878 20.4659C141.644 21.0568 142.41 21.5017 143.169 21.7937C143.928 22.0856 144.68 22.2386 145.426 22.2386C146.537 22.2386 147.365 22.0648 147.917 21.7172C148.469 21.3696 148.745 20.8552 148.745 20.16C148.745 19.7012 148.593 19.3536 148.29 19.1242C147.986 18.8948 147.613 18.7419 147.165 18.6584C146.716 18.575 146.081 18.5055 145.267 18.4429C145.191 18.4429 145.115 18.4429 145.032 18.4429C144.949 18.4429 144.874 18.429 144.798 18.4221C144.763 18.4221 144.722 18.4221 144.687 18.4221C144.653 18.4221 144.611 18.4221 144.577 18.4221C143.652 18.3456 142.865 18.2135 142.224 18.0119C141.582 17.8103 141.05 17.4419 140.623 16.8996C140.195 16.3574 139.981 15.5788 139.981 14.5639C139.981 13.5489 140.188 12.7078 140.602 12.0334C141.016 11.3591 141.63 10.8516 142.444 10.518C143.259 10.1843 144.28 10.0105 145.508 10.0105C146.254 10.0105 146.958 10.08 147.634 10.219C148.31 10.3581 148.952 10.5666 149.566 10.8377C150.18 11.1089 150.767 11.4564 151.34 11.8666L149.649 13.9313C148.931 13.4655 148.234 13.1249 147.537 12.8955C146.847 12.666 146.171 12.5479 145.508 12.5479C144.556 12.5479 143.838 12.7147 143.362 13.0414C142.886 13.3682 142.645 13.8617 142.645 14.5152C142.645 14.9045 142.783 15.1965 143.052 15.3842C143.321 15.5788 143.666 15.704 144.073 15.7735C144.487 15.836 145.074 15.8916 145.833 15.9403C145.888 15.9473 145.943 15.9542 146.005 15.9542C146.067 15.9542 146.13 15.9542 146.192 15.9681H146.274C146.274 15.9681 146.33 15.9681 146.357 15.982C147.358 16.0446 148.207 16.1836 148.904 16.3852C149.601 16.5868 150.194 16.99 150.67 17.5879C151.147 18.1857 151.388 19.0547 151.388 20.1878C151.388 21.2236 151.167 22.0787 150.726 22.753C150.284 23.4273 149.621 23.9418 148.738 24.2824C147.855 24.623 146.744 24.7968 145.405 24.7968C144.563 24.7968 143.769 24.7134 143.038 24.5466L143.059 24.5187Z" fill="white"/>
<path d="M154.977 4.4352H157.779V7.2576H154.977V4.4352ZM154.977 10.1912H157.779V24.5605H154.977V10.1912Z" fill="white"/>
<path d="M162.658 23.6637C161.788 22.9268 161.353 21.8145 161.353 20.3199C161.353 18.8253 161.754 17.8312 162.547 17.1221C163.341 16.413 164.548 16.0585 166.163 16.0585H170.214L170.407 18.3317H166.177C165.446 18.3317 164.9 18.4916 164.535 18.8253C164.169 19.159 163.989 19.6525 163.989 20.3269C163.989 21.0568 164.231 21.5921 164.707 21.9466C165.19 22.2942 165.922 22.4749 166.902 22.4749C167.971 22.4749 168.772 22.3568 169.296 22.1273C169.821 21.8979 170.083 21.5365 170.083 21.0498L170.373 23.0728C170.124 23.4621 169.821 23.7749 169.462 24.0252C169.103 24.2754 168.682 24.4631 168.206 24.5883C167.73 24.7134 167.192 24.776 166.598 24.776C164.838 24.776 163.527 24.4075 162.658 23.6776V23.6637ZM170.09 15.4537C170.09 14.5152 169.842 13.7783 169.345 13.2569C168.848 12.7356 168.137 12.4714 167.219 12.4714C166.653 12.4714 166.094 12.5618 165.549 12.7356C165.004 12.9094 164.521 13.1527 164.1 13.4655L162.05 12.0543C162.589 11.4008 163.306 10.8864 164.19 10.5249C165.073 10.1634 166.053 9.97572 167.136 9.97572C168.316 9.97572 169.331 10.1843 170.173 10.6083C171.015 11.0324 171.657 11.6372 172.098 12.4366C172.54 13.2361 172.761 14.1954 172.761 15.3216V24.5535H170.097V15.4467L170.09 15.4537Z" fill="white"/>
<path d="M177.012 10.1912H179.814V24.5605H177.012V10.1912ZM185.673 15.8499C185.673 14.835 185.41 14.0494 184.886 13.5003C184.361 12.9511 183.63 12.673 182.684 12.673C181.739 12.673 181.063 12.9163 180.559 13.4029C180.062 13.8896 179.807 14.5778 179.807 15.4676L179.517 12.7008C179.958 11.8318 180.531 11.1645 181.242 10.6918C181.953 10.219 182.74 9.98268 183.595 9.98268C185.141 9.98268 186.342 10.4902 187.191 11.5121C188.04 12.534 188.461 13.973 188.461 15.836V24.5535H185.659V15.8499H185.673Z" fill="white"/>
<path d="M193.008 4.4352H195.81V24.5605H193.008V4.4352ZM194.754 13.3056H205.844V15.989H194.754V13.3056ZM204.354 4.4352H207.155V24.5605H204.354V4.4352Z" fill="white"/>
<path d="M214.126 24.0321C213.242 23.5455 212.573 22.8295 212.11 21.8979C211.648 20.9595 211.413 19.8333 211.413 18.5125V16.1767C211.413 14.8767 211.648 13.7644 212.11 12.8329C212.573 11.9083 213.242 11.1992 214.126 10.7126C215.002 10.226 216.065 9.98268 217.3 9.98268C218.535 9.98268 219.591 10.226 220.474 10.7126C221.351 11.1992 222.027 11.9014 222.49 12.8329C222.952 13.7575 223.187 14.8767 223.187 16.1767V18.5542C223.187 19.8611 222.959 20.9803 222.49 21.9119C222.027 22.8364 221.358 23.5455 220.474 24.0391C219.598 24.5257 218.535 24.776 217.3 24.776C216.065 24.776 215.009 24.5327 214.126 24.0391V24.0321ZM219.57 21.1541C220.109 20.5354 220.371 19.6664 220.371 18.5542V16.1767C220.371 15.0644 220.102 14.1954 219.57 13.5906C219.032 12.9789 218.273 12.68 217.293 12.68C216.313 12.68 215.554 12.9858 215.016 13.5906C214.477 14.2024 214.215 15.0644 214.215 16.1767V18.5542C214.215 19.6734 214.484 20.5354 215.016 21.1541C215.554 21.7728 216.306 22.0787 217.293 22.0787C218.28 22.0787 219.032 21.7659 219.57 21.1541Z" fill="white"/>
<path d="M227.162 10.1912H229.963V24.5605H227.162V10.1912ZM234.076 12.9024C233.704 12.7425 233.269 12.666 232.772 12.666C231.882 12.666 231.192 12.9163 230.702 13.4029C230.212 13.8965 229.963 14.5847 229.963 15.4606L229.674 12.6939C230.115 11.8388 230.681 11.1714 231.378 10.6918C232.075 10.219 232.841 9.97572 233.683 9.97572C234.332 9.97572 234.925 10.073 235.45 10.2607C235.974 10.4484 236.437 10.7265 236.83 11.095L235.001 13.5837C234.753 13.2778 234.442 13.0484 234.07 12.8885L234.076 12.9024Z" fill="white"/>
<path d="M241.84 24.5187C241.102 24.3519 240.412 24.1016 239.77 23.7749C239.128 23.4482 238.534 23.0311 237.996 22.5306L239.659 20.4659C240.425 21.0568 241.191 21.5017 241.951 21.7937C242.71 22.0856 243.462 22.2386 244.207 22.2386C245.318 22.2386 246.146 22.0648 246.698 21.7172C247.251 21.3696 247.527 20.8552 247.527 20.16C247.527 19.7012 247.375 19.3536 247.071 19.1242C246.767 18.8948 246.395 18.7419 245.946 18.6584C245.498 18.575 244.863 18.5055 244.048 18.4429C243.973 18.4429 243.897 18.4429 243.814 18.4429C243.731 18.4429 243.655 18.429 243.579 18.4221C243.545 18.4221 243.503 18.4221 243.469 18.4221C243.434 18.4221 243.393 18.4221 243.358 18.4221C242.434 18.3456 241.647 18.2135 241.005 18.0119C240.363 17.8103 239.832 17.4419 239.404 16.8996C238.976 16.3574 238.762 15.5788 238.762 14.5639C238.762 13.5489 238.969 12.7078 239.383 12.0334C239.797 11.3591 240.412 10.8516 241.226 10.518C242.04 10.1843 243.062 10.0105 244.29 10.0105C245.035 10.0105 245.739 10.08 246.415 10.219C247.092 10.3581 247.734 10.5666 248.348 10.8377C248.962 11.1089 249.549 11.4564 250.121 11.8666L248.431 13.9313C247.713 13.4655 247.016 13.1249 246.319 12.8955C245.629 12.666 244.952 12.5479 244.29 12.5479C243.338 12.5479 242.62 12.7147 242.144 13.0414C241.668 13.3682 241.426 13.8617 241.426 14.5152C241.426 14.9045 241.564 15.1965 241.833 15.3842C242.102 15.5788 242.447 15.704 242.855 15.7735C243.269 15.836 243.855 15.8916 244.614 15.9403C244.67 15.9473 244.725 15.9542 244.787 15.9542C244.849 15.9542 244.911 15.9542 244.973 15.9681H245.056C245.056 15.9681 245.111 15.9681 245.139 15.982C246.139 16.0446 246.988 16.1836 247.685 16.3852C248.382 16.5868 248.976 16.99 249.452 17.5879C249.928 18.1857 250.17 19.0547 250.17 20.1878C250.17 21.2236 249.949 22.0787 249.507 22.753C249.065 23.4273 248.403 23.9418 247.52 24.2824C246.636 24.623 245.525 24.7968 244.186 24.7968C243.345 24.7968 242.551 24.7134 241.819 24.5466L241.84 24.5187Z" fill="white"/>
<path d="M256.222 24.0182C255.29 23.5177 254.573 22.7878 254.083 21.8215C253.593 20.8552 253.344 19.6943 253.344 18.3248V16.705C253.344 15.2869 253.579 14.0703 254.055 13.0623C254.524 12.0543 255.214 11.2896 256.111 10.7613C257.009 10.2329 258.092 9.96878 259.355 9.96878C260.549 9.96878 261.563 10.2677 262.405 10.8656C263.247 11.4634 263.889 12.3324 264.338 13.4655C264.779 14.5986 265.007 15.9612 265.007 17.5462V18.4847H255.387V16.2184H262.336C262.253 15.0435 261.957 14.1329 261.439 13.4864C260.921 12.8329 260.225 12.5131 259.355 12.5131C258.292 12.5131 257.471 12.8607 256.891 13.5628C256.312 14.265 256.022 15.259 256.022 16.5382V18.3665C256.022 19.5552 256.332 20.4728 256.953 21.1055C257.574 21.745 258.458 22.0578 259.603 22.0578C260.169 22.0578 260.735 21.9397 261.294 21.7103C261.853 21.4808 262.35 21.1541 262.792 20.744L264.634 22.6001C263.93 23.2813 263.137 23.8097 262.26 24.1851C261.384 24.5605 260.501 24.7482 259.61 24.7482C258.292 24.7482 257.167 24.4979 256.229 24.0043L256.222 24.0182Z" fill="white"/>
<path d="M93.7092 42.5794H94.6271L97.4565 50.3027H96.6146L94.1716 43.3788L91.7286 50.3027H90.8867L93.7162 42.5794H93.7092ZM92.191 47.7167H96.2281V48.4258H92.191V47.7167Z" fill="white"/>
<path d="M102.998 44.7831H103.661V50.2958H103.005V45.5477L103.06 45.9927L101.3 49.2183H100.866L99.1059 45.9927L99.1611 45.5477V50.2958H98.5055V44.7831H99.168L101.08 48.3145L102.991 44.7831H102.998Z" fill="white"/>
<path d="M104.613 44.7831H105.393L107.194 49.8995L106.801 50.7476L104.62 44.7831H104.613ZM109.457 44.7831L107.125 51.5888C107.042 51.8391 106.932 52.0407 106.794 52.1867C106.656 52.3326 106.49 52.4369 106.29 52.4995C106.09 52.562 105.841 52.5968 105.551 52.5968H105.337V51.8738H105.551C105.834 51.8738 106.055 51.8113 106.221 51.6792C106.386 51.5471 106.531 51.3246 106.649 51.0118L108.678 44.7761H109.457V44.7831Z" fill="white"/>
<path d="M110.41 44.7831H111.169V50.2958H110.41V44.7831ZM110.865 47.237H114.647V47.9461H110.865V47.237ZM114.185 44.7831H114.944V50.2958H114.185V44.7831Z" fill="white"/>
<path d="M120.389 50.2958V45.8745L120.513 46.0135L117.249 50.2958H116.635V44.7831H117.38V49.2947L117.256 49.1557L120.534 44.7831H121.141V50.2958H120.396H120.389Z" fill="white"/>
<path d="M122.825 44.7831H123.584V50.2958H122.825V44.7831ZM123.494 49.5867H127.704V50.2958H123.494V49.5867ZM126.558 44.7831H127.317V50.2958H126.558V44.7831ZM127.269 49.5867H128.028V51.6861H127.269V49.5867Z" fill="white"/>
<path d="M133.211 50.2958V45.8745L133.335 46.0135L130.071 50.2958H129.457V44.7831H130.202V49.2947L130.078 49.1557L133.356 44.7831H133.963V50.2958H133.218H133.211Z" fill="white"/>
<path d="M135.274 50.3027L136.972 47.8766L137.696 48.1199L136.206 50.2958H135.274V50.3027ZM137.296 48.3632C136.917 48.3632 136.585 48.2867 136.296 48.1407C136.006 47.9948 135.785 47.7862 135.626 47.5151C135.467 47.244 135.385 46.9311 135.385 46.5766C135.385 46.2221 135.461 45.9092 135.619 45.6381C135.778 45.367 135.999 45.1585 136.289 45.0125C136.579 44.8665 136.91 44.79 137.289 44.79H139.339V45.4991H137.248C136.937 45.4991 136.682 45.5964 136.496 45.7911C136.309 45.9857 136.213 46.2499 136.213 46.5696C136.213 46.7852 136.254 46.9729 136.344 47.1327C136.434 47.2926 136.551 47.4247 136.71 47.5151C136.868 47.6055 137.048 47.6541 137.255 47.6541H139.346V48.3632H137.296ZM139.001 50.3027V44.79H139.76V50.3027H139.001Z" fill="white"/>
<path d="M144.135 49.5867H149.09V50.2958H144.135V49.5867ZM144.135 49.5867H144.894V51.6861H144.135V49.5867ZM144.183 49.5867H144.308C144.549 49.5867 144.736 49.4894 144.853 49.3017C144.97 49.114 145.053 48.8359 145.088 48.4883C145.122 48.1338 145.143 47.6541 145.143 47.0493V44.79H145.902V47.9391C145.902 48.5926 145.812 49.0931 145.633 49.4546C145.453 49.8092 145.205 49.9899 144.88 49.9899H144.756L144.177 49.5936L144.183 49.5867ZM145.819 44.7831H148.828V45.4921H145.819V44.7831ZM148.152 44.7831H148.911V50.2958H148.152V44.7831ZM148.973 49.5867H149.732V51.6861H148.973V49.5867Z" fill="white"/>
<path d="M150.781 49.6354C151.064 49.6354 151.285 49.5033 151.436 49.2461C151.595 48.9889 151.671 48.6204 151.671 48.1477V44.7761H152.43V48.2937C152.43 48.7247 152.368 49.0931 152.251 49.399C152.133 49.7049 151.954 49.9412 151.726 50.1011C151.499 50.261 151.216 50.3375 150.891 50.3375H150.788V49.6284L150.781 49.6354ZM152.133 44.7831H155.135V45.4921H152.133V44.7831ZM154.777 44.7831H155.536V50.2958H154.777V44.7831Z" fill="white"/>
<path d="M156.854 50.3027L158.551 47.8766L159.276 48.1199L157.785 50.2958H156.854V50.3027ZM158.876 48.3632C158.496 48.3632 158.165 48.2867 157.875 48.1407C157.585 47.9948 157.364 47.7862 157.206 47.5151C157.047 47.244 156.964 46.9311 156.964 46.5766C156.964 46.2221 157.04 45.9092 157.199 45.6381C157.358 45.367 157.578 45.1585 157.868 45.0125C158.158 44.8665 158.489 44.79 158.869 44.79H160.918V45.4991H158.827C158.517 45.4991 158.262 45.5964 158.075 45.7911C157.889 45.9857 157.792 46.2499 157.792 46.5696C157.792 46.7852 157.834 46.9729 157.923 47.1327C158.013 47.2926 158.13 47.4247 158.289 47.5151C158.448 47.6055 158.627 47.6541 158.834 47.6541H160.925V48.3632H158.876ZM160.58 50.3027V44.79H161.339V50.3027H160.58Z" fill="white"/>
<path d="M165.929 44.7831H166.688V50.2958H165.929V44.7831ZM166.453 47.1744H168.434V47.8835H166.453V47.1744ZM167.695 47.237L169.421 44.79H170.325L168.096 47.9739L167.695 47.237ZM167.695 47.8071L168.337 47.4108L170.642 50.3027H169.676L167.695 47.814V47.8071Z" fill="white"/>
<path d="M172.215 50.1011C171.877 49.9134 171.622 49.6423 171.443 49.2808C171.263 48.9193 171.173 48.4883 171.173 47.9809V47.0841C171.173 46.5836 171.263 46.1595 171.443 45.798C171.622 45.4435 171.877 45.1724 172.215 44.9847C172.554 44.797 172.961 44.7066 173.437 44.7066C173.913 44.7066 174.32 44.797 174.658 44.9847C174.997 45.1724 175.252 45.4435 175.431 45.798C175.611 46.1525 175.701 46.5836 175.701 47.0841V47.9948C175.701 48.4953 175.611 48.9263 175.431 49.2808C175.252 49.6354 174.997 49.9065 174.658 50.0942C174.32 50.2819 173.913 50.3723 173.437 50.3723C172.961 50.3723 172.554 50.2819 172.215 50.0942V50.1011ZM174.534 49.2322C174.796 48.9402 174.928 48.53 174.928 47.9948V47.0841C174.928 46.5558 174.796 46.1456 174.534 45.8536C174.272 45.5617 173.899 45.4157 173.423 45.4157C172.947 45.4157 172.581 45.5617 172.319 45.8536C172.057 46.1456 171.926 46.5558 171.926 47.0841V47.9948C171.926 48.5231 172.057 48.9402 172.319 49.2322C172.581 49.5241 172.947 49.6701 173.423 49.6701C173.899 49.6701 174.272 49.5241 174.534 49.2322Z" fill="white"/>
<path d="M177.219 44.7831H177.978V50.2958H177.219V44.7831ZM177.681 47.237H181.463V47.9461H177.681V47.237ZM180.994 44.7831H181.753V50.2958H180.994V44.7831Z" fill="white"/>
<path d="M183.443 44.7831H184.203V50.2958H183.443V44.7831ZM183.906 47.237H187.688V47.9461H183.906V47.237ZM187.218 44.7831H187.977V50.2958H187.218V44.7831Z" fill="white"/>
<path d="M190.552 50.1011C190.213 49.9134 189.958 49.6423 189.779 49.2808C189.599 48.9193 189.509 48.4883 189.509 47.9809V47.0841C189.509 46.5836 189.599 46.1595 189.779 45.798C189.958 45.4435 190.213 45.1724 190.552 44.9847C190.89 44.797 191.297 44.7066 191.773 44.7066C192.249 44.7066 192.656 44.797 192.995 44.9847C193.333 45.1724 193.588 45.4435 193.767 45.798C193.947 46.1525 194.037 46.5836 194.037 47.0841V47.9948C194.037 48.4953 193.947 48.9263 193.767 49.2808C193.588 49.6354 193.333 49.9065 192.995 50.0942C192.656 50.2819 192.249 50.3723 191.773 50.3723C191.297 50.3723 190.89 50.2819 190.552 50.0942V50.1011ZM192.87 49.2322C193.133 48.9402 193.264 48.53 193.264 47.9948V47.0841C193.264 46.5558 193.133 46.1456 192.87 45.8536C192.608 45.5617 192.235 45.4157 191.759 45.4157C191.283 45.4157 190.917 45.5617 190.655 45.8536C190.393 46.1456 190.262 46.5558 190.262 47.0841V47.9948C190.262 48.5231 190.393 48.9402 190.655 49.2322C190.917 49.5241 191.283 49.6701 191.759 49.6701C192.235 49.6701 192.608 49.5241 192.87 49.2322Z" fill="white"/>
<path d="M195.555 44.7831H196.314V50.2958H195.555V44.7831ZM196.086 44.7831H199.067V45.4921H196.086V44.7831Z" fill="white"/>
<path d="M200.627 50.1011C200.289 49.9134 200.034 49.6423 199.854 49.2808C199.675 48.9193 199.585 48.4883 199.585 47.9809V47.0841C199.585 46.5836 199.675 46.1595 199.854 45.798C200.034 45.4435 200.289 45.1724 200.627 44.9847C200.965 44.797 201.372 44.7066 201.849 44.7066C202.325 44.7066 202.732 44.797 203.07 44.9847C203.408 45.1724 203.664 45.4435 203.843 45.798C204.022 46.1525 204.112 46.5836 204.112 47.0841V47.9948C204.112 48.4953 204.022 48.9263 203.843 49.2808C203.664 49.6354 203.408 49.9065 203.07 50.0942C202.732 50.2819 202.325 50.3723 201.849 50.3723C201.372 50.3723 200.965 50.2819 200.627 50.0942V50.1011ZM202.953 49.2322C203.215 48.9402 203.346 48.53 203.346 47.9948V47.0841C203.346 46.5558 203.215 46.1456 202.953 45.8536C202.69 45.5617 202.318 45.4157 201.842 45.4157C201.365 45.4157 201 45.5617 200.737 45.8536C200.475 46.1456 200.344 46.5558 200.344 47.0841V47.9948C200.344 48.5231 200.475 48.9402 200.737 49.2322C201 49.5241 201.365 49.6701 201.842 49.6701C202.318 49.6701 202.69 49.5241 202.953 49.2322Z" fill="white"/>
<path d="M209.426 50.115C209.074 49.9412 208.812 49.6701 208.639 49.3156C208.467 48.9611 208.377 48.5161 208.377 47.9809V47.0702C208.377 46.5418 208.467 46.1039 208.639 45.7493C208.812 45.3948 209.081 45.1376 209.426 44.9569C209.771 44.7761 210.213 44.6927 210.744 44.6927C211.041 44.6927 211.317 44.7274 211.558 44.79C211.807 44.8526 212.028 44.9499 212.221 45.082C212.414 45.2141 212.58 45.374 212.725 45.5756L212.159 46.083C211.972 45.8536 211.765 45.6868 211.531 45.5756C211.296 45.4643 211.041 45.4087 210.758 45.4087C210.213 45.4087 209.805 45.5478 209.536 45.8189C209.267 46.09 209.136 46.5071 209.136 47.0632V47.9739C209.136 48.537 209.274 48.9611 209.543 49.2391C209.812 49.5172 210.22 49.6562 210.765 49.6562C211.061 49.6562 211.337 49.6006 211.579 49.4963C211.821 49.3921 212.041 49.2252 212.242 49.0097L212.732 49.4963C212.587 49.691 212.421 49.8509 212.228 49.983C212.035 50.1081 211.814 50.2054 211.565 50.268C211.317 50.3305 211.048 50.3653 210.751 50.3653C210.226 50.3653 209.785 50.2749 209.433 50.1011L209.426 50.115Z" fill="white"/>
<path d="M213.919 44.7831H214.678V50.2958H213.919V44.7831ZM214.381 44.7831H218.163V45.4921H214.381V44.7831ZM217.693 44.7831H218.452V50.2958H217.693V44.7831Z" fill="white"/>
<path d="M221.027 50.1011C220.688 49.9134 220.433 49.6423 220.254 49.2808C220.074 48.9193 219.984 48.4883 219.984 47.9809V47.0841C219.984 46.5836 220.074 46.1595 220.254 45.798C220.433 45.4435 220.688 45.1724 221.027 44.9847C221.365 44.797 221.772 44.7066 222.248 44.7066C222.724 44.7066 223.131 44.797 223.47 44.9847C223.808 45.1724 224.063 45.4435 224.242 45.798C224.422 46.1525 224.512 46.5836 224.512 47.0841V47.9948C224.512 48.4953 224.422 48.9263 224.242 49.2808C224.063 49.6354 223.808 49.9065 223.47 50.0942C223.131 50.2819 222.724 50.3723 222.248 50.3723C221.772 50.3723 221.365 50.2819 221.027 50.0942V50.1011ZM223.345 49.2322C223.608 48.9402 223.739 48.53 223.739 47.9948V47.0841C223.739 46.5558 223.608 46.1456 223.345 45.8536C223.083 45.5617 222.71 45.4157 222.234 45.4157C221.758 45.4157 221.392 45.5617 221.13 45.8536C220.868 46.1456 220.737 46.5558 220.737 47.0841V47.9948C220.737 48.5231 220.868 48.9402 221.13 49.2322C221.392 49.5241 221.758 49.6701 222.234 49.6701C222.71 49.6701 223.083 49.5241 223.345 49.2322Z" fill="white"/>
<path d="M226.03 44.7831H226.789V52.5412H226.03V44.7831ZM227.369 50.1637C227.072 50.0177 226.851 49.7744 226.713 49.4407L226.789 48.2867C226.789 48.53 226.844 48.7595 226.955 48.9819C227.065 49.2044 227.231 49.3851 227.438 49.5241C227.645 49.6632 227.893 49.7327 228.176 49.7327C228.632 49.7327 228.983 49.5937 229.239 49.3225C229.487 49.0445 229.611 48.6621 229.611 48.1686V46.9729C229.611 46.4654 229.487 46.0761 229.239 45.798C228.99 45.5199 228.638 45.3809 228.176 45.3809C227.893 45.3809 227.652 45.4504 227.438 45.5895C227.224 45.7285 227.065 45.9023 226.955 46.1178C226.844 46.3333 226.789 46.5627 226.789 46.7991L226.679 45.7355C226.872 45.3809 227.12 45.1167 227.438 44.9638C227.755 44.8109 228.121 44.7274 228.535 44.7274C228.921 44.7274 229.253 44.8178 229.529 44.9916C229.805 45.1654 230.012 45.4226 230.157 45.7563C230.302 46.09 230.371 46.5001 230.371 46.9729V48.1755C230.371 48.6413 230.295 49.0445 230.15 49.3782C230.005 49.7118 229.784 49.9621 229.501 50.1428C229.218 50.3166 228.873 50.407 228.48 50.407C228.038 50.407 227.665 50.3305 227.369 50.1846V50.1637Z" fill="white"/>
<path d="M231.219 44.7831H235.47V45.4921H231.219V44.7831ZM232.965 45.0959H233.724V50.2958H232.965V45.0959Z" fill="white"/>
<path d="M237.161 49.9343C236.809 49.6354 236.637 49.2183 236.637 48.676C236.637 48.1338 236.795 47.7515 237.12 47.4664C237.444 47.1814 237.893 47.0354 238.486 47.0354H240.308L240.384 47.7445H238.493C238.141 47.7445 237.872 47.8279 237.679 47.9878C237.486 48.1477 237.389 48.3771 237.389 48.6691C237.389 48.9819 237.506 49.2252 237.748 49.3921C237.989 49.5589 238.327 49.6493 238.769 49.6493C239.238 49.6493 239.604 49.6006 239.866 49.5033C240.129 49.406 240.26 49.2739 240.26 49.1001L240.37 49.8231C240.26 49.9343 240.122 50.0316 239.949 50.115C239.777 50.1985 239.583 50.261 239.363 50.3027C239.142 50.3444 238.907 50.3653 238.652 50.3653C238.01 50.3653 237.513 50.2193 237.161 49.9204V49.9343ZM240.253 46.806C240.253 46.3611 240.136 46.0135 239.894 45.7702C239.652 45.5269 239.321 45.4018 238.886 45.4018C238.624 45.4018 238.369 45.4435 238.12 45.5269C237.872 45.6103 237.651 45.7355 237.458 45.8884L236.906 45.506C237.113 45.2558 237.389 45.0611 237.727 44.9221C238.065 44.7831 238.445 44.7135 238.859 44.7135C239.314 44.7135 239.701 44.797 240.025 44.9569C240.349 45.1167 240.591 45.3531 240.764 45.659C240.929 45.9649 241.019 46.3333 241.019 46.7643V50.3097H240.26V46.813L240.253 46.806Z" fill="white"/>
</g>
<defs>
<clipPath id="clip0_4_47">
<rect width="265" height="53" fill="white"/>
</clipPath>
</defs>
</svg>
