<?xml version="1.0" encoding="UTF-8"?>
<svg id="_Слой_1" data-name="Слой 1" xmlns="http://www.w3.org/2000/svg" viewBox="0 0 67.94 52.99">
  <path d="m67.94,43.57c-.62,1.65-1.25,3.29-1.87,4.94-.28.75-.81,1.29-1.46,1.72-1.68,1.11-3.5,1.68-5.51,1.36-.92-.15-1.81-.43-2.72-.67-.83-.22-1.42-.74-1.73-1.56-.12-.31-.25-.63-.37-.94-.16-.42-.23-.49-.66-.31-.71.28-1.41.58-2.1.9-1.13.54-2.28,1.04-3.53,1.17-1.01.11-2.02.19-3.04.2-1.84.01-3.67.04-5.5-.1-2.65-.2-5.24-.76-7.8-1.5-.71-.2-.72-.2-1.03.48-.47,1.04-.93,2.07-1.39,3.11-.27.6-.59.75-1.21.53-.24-.08-.48-.17-.72-.26-.55-.2-.71-.54-.49-1.08.52-1.25,1.04-2.5,1.57-3.79-.11-.05-.21-.1-.31-.14-5.13-1.86-9.97-4.33-14.68-7.06-.09-.05-.18-.1-.28-.15-.61-.3-1.19-.29-1.68.22-.34.36-.66.74-.98,1.12-.17.2-.32.42-.51.7-4.07-3.61-7.43-7.75-9.94-12.6.9-.53,1.75-1.02,2.58-1.53.17-.1.28-.28.41-.42-.18-.09-.35-.22-.53-.27-.57-.15-1.15-.26-1.72-.4-.15-.03-.3-.09-.44-.14v-.1c.38-.06.76-.1,1.13-.16.73-.1,1.45-.28,2.1-.66.51-.31.55-.63.13-1.06-.35-.35-.32-.63.09-.9.21-.15.43-.27.63-.42.35-.25.34-.54-.02-.77-.53-.35-1.09-.66-1.59-1.05-.25-.19-.43-.51-.57-.81-.17-.39.03-.76.45-.81.5-.06,1.02-.09,1.51,0,2.33.4,4.49-.22,6.62-1,3.66-1.34,6.53-3.74,8.82-6.87.61-.83.77-1.68.18-2.61-.11-.17-.14-.5-.05-.67.08-.13.43-.2.6-.15,1.91.65,3.64.11,5.3-.82,1.09-.6,2.2-1.17,3.42-1.49,1.7-.44,3.37-.39,5.04.16,2.59.85,5.2.83,7.8.04.61-.19,1.1-.53,1.43-1.08,1.06-1.81,2.12-3.62,3.17-5.43.08-.13.16-.25.29-.44.01.16.03.24.03.33,0,1.04-.01,2.07.01,3.1,0,.19.1.49.23.55.14.06.41-.05.57-.17.59-.43,1.01-1.01,1.36-1.65.32-.58.61-1.17.93-1.74.07-.13.25-.3.34-.28.13.03.26.19.34.33.77,1.45.48,2.93.15,4.42-.07.33-.19.65-.28.97-.2.7-.06,1.08.53,1.5.39.28.78.54,1.15.84,1.1.9,1.53,2.06,1.33,3.5-.21,1.39.13,2.71.69,3.96,2.35,5.26,4.71,10.51,7.09,15.76.22.48.59.92.99,1.28,1.01.92,1.67,2.02,2.18,3.29.66,1.65,1.53,3.22,2.31,4.82.38.77.78,1.53,1.17,2.29v.49h.02ZM28.14,19.94s.06.08.09.11c-.15.17-.29.36-.46.5-1.01.84-2.06,1.65-3.06,2.52-3.13,2.68-5.83,5.71-7.88,9.32-1.08,1.89-2.3,3.7-3.46,5.54-.23.37-.17.68.21.91.41.24.83.46,1.24.68,4.39,2.38,8.83,4.62,13.48,6.47.67.26.88.19,1.21-.47,1.26-2.48,2.5-4.97,3.76-7.45.28-.56.3-1.08.01-1.63-.36-.7-.5-1.45-.41-2.22.08-.67.35-1.27.7-1.84.57-.94,1.15-1.88,1.69-2.84.28-.5.18-.88-.22-1.21-.4-.33-.77-.33-1.21.06-.36.31-.7.64-1.01,1-1.19,1.4-2.54,2.64-3.95,3.8-.27.22-.64.35-.99.45-.29.08-.61.06-.81-.24-.19-.3-.08-.59.1-.84.33-.46.64-.94,1.03-1.36,1.28-1.38,2.59-2.74,3.89-4.12,1.56-1.65,3.05-3.36,4.23-5.33.26-.44.43-.95.57-1.45.19-.68.28-1.39.44-2.08.04-.17.16-.42.3-.47.52-.18,1.06-.23,1.55.15.71.56,1.05,1.29.92,2.2-.17,1.24-.05,2.43.46,3.58.63,1.42,1.63,2.56,2.77,3.57.22.19.65.25.97.22.58-.06,1.16-.21,1.73-.35.72-.19,1.44-.42,2.17-.6.48-.12.8.07,1.02.51.06.1.07.24.14.31.1.1.24.15.37.22.06-.13.19-.25.19-.37,0-.22-.08-.43-.16-.63-.3-.74-.68-1.45-.92-2.21-.5-1.58-1.55-2.67-2.93-3.47-.41-.24-.76-.16-1.08.19-.21.23-.43.45-.62.7-.52.66-1.17,1.23-1.44,2.07-.02.07-.17.17-.19.16-.1-.07-.21-.15-.25-.26-.5-1.24-.86-2.5-.66-3.87.03-.22.01-.47-.03-.69-.2-.96.11-1.71.85-2.31.22-.18.47-.34.68-.54.32-.29.54-1.09.39-1.41-.15-.32-.72-.57-1.21-.51-.23.03-.45.09-.67.16-.26.08-.52.19-.78.28-.72.23-1.26.04-1.69-.58-.1-.14-.19-.29-.31-.42-.29-.32-.66-.48-1.06-.3-.64.29-1.28.18-1.93.11-.73-.08-1.47-.22-2.2-.18-1.42.07-2.77.49-4.03,1.16-2.53,1.33-4.91,2.92-7.18,4.64-4.1,3.1-7.84,6.6-11.35,10.36-.35.37-.68.76-.95,1.2-.37.6-.41,1.28-.14,1.94.3.75.79.86,1.39.32.19-.17.37-.36.52-.56.93-1.17,2.03-2.13,3.35-2.87.7-.4,1.35-.93,1.95-1.49,2.37-2.22,4.72-4.48,7.07-6.73.62-.59,1.33-1.04,2.13-1.35.55-.22,1.12-.24,1.7-.19h0Zm25.29,26.59c-.88-1.11-1.79-2.12-2.8-3.04-1.54-1.4-3.39-2.15-5.38-2.64-2.06-.51-4.05-1.19-5.76-2.51-.37-.29-.75-.22-1.06.18-1.9,2.45-3.8,4.91-5.69,7.37-.35.45-.28.88.22,1.13.71.35,1.43.71,2.19.94,2.82.87,5.71,1.14,8.65,1,3.13-.15,6.14-.83,9.01-2.11.21-.09.4-.21.63-.33h0Zm7.59-12.82c-.06-.17-.15-.5-.31-.81-.54-1.06-1.12-2.11-1.65-3.18-.52-1.05-.99-2.12-1.49-3.18-.43-.88-1.08-1.13-1.93-.79-.65.26-.8.67-.48,1.29.47.92.95,1.84,1.41,2.75.81,1.58,1.64,3.18,2.45,4.76.17.32.38.56.76.56.57,0,1.24-.68,1.24-1.43h0Zm-7.79-12.54c.28-.06.57-.1.84-.17.53-.15.75-.51.61-1.06-.14-.56-.26-1.14-.47-1.68-.35-.89-.75-1.77-1.17-2.63-.18-.38-.57-.44-.83-.17-.47.49-.91,1.01-1.34,1.55-.2.26-.11.44.21.54.24.07.5.1.74.17.52.15.62.42.32.88-.16.24-.33.48-.49.72-.27.4-.25.79.08,1.14.4.44.89.69,1.5.71h0Z"/>
</svg>